<svg width="34" height="22" viewBox="0 0 34 22" fill="none" xmlns="http://www.w3.org/2000/svg">
<path d="M2.74434 6.10352e-05C1.23789 6.10352e-05 0.384675 1.29827 0.00231934 2.75644V4.07414H33.4081V2.75644C33.4081 1.249 32.1789 6.10352e-05 30.6724 6.10352e-05H2.74434ZM0.00231934 5.70378V8.14822H33.4081V5.70378H0.00231934ZM0.00231934 9.77783V19.2516C0.00231934 20.7591 1.23789 22 2.74434 22H30.6724C32.1789 22 33.4081 20.7591 33.4081 19.2516V9.77783H0.00231934ZM5.82377 13.0848H10.4803C11.4507 13.0848 12.2245 13.8928 12.2245 14.8657V17.0029C12.2245 17.9822 11.4507 18.7885 10.4803 18.7885H5.82377C4.85338 18.7885 4.07957 17.9824 4.07957 17.0029V14.8657C4.07957 13.8864 4.85338 13.0848 5.82377 13.0848ZM5.82377 14.7145C5.76249 14.7145 5.71075 14.7822 5.71075 14.8657V17.003C5.71075 17.1024 5.76249 17.1588 5.82377 17.1588H10.4803C10.5416 17.1588 10.5933 17.0991 10.5933 17.003V14.8657C10.5933 14.7727 10.5416 14.7145 10.4803 14.7145H5.82377Z" fill="#50AE7C"/>
</svg>
