<svg width="16" height="15" viewBox="0 0 16 15" fill="none" xmlns="http://www.w3.org/2000/svg">
<path d="M1.25037 13.3426C1.25037 13.3426 1.25035 13.178 1.33265 13.0957M1.25037 13.3426L14.0899 0.91462M1.25037 13.3426V13.5895M1.25037 13.3426V13.5895M1.33265 13.0957C1.33265 13.0134 1.41492 12.9312 1.49721 12.8489L1.49727 12.8488L6.75259 7.59347L6.57581 7.41669M1.33265 13.0957H1.08265C1.08265 13.0585 1.08815 13.0238 1.09697 12.992M1.33265 13.0957L1.15587 12.9189C1.13275 12.9421 1.11332 12.9668 1.09697 12.992M6.57581 7.41669L6.75259 7.23991L1.49727 1.98457L1.49721 1.98451C1.41493 1.90223 1.33265 1.81995 1.33265 1.73767C1.33265 1.69651 1.31208 1.65536 1.29151 1.6142C1.27094 1.57305 1.25037 1.53189 1.25037 1.49074V1.49068C1.25037 1.40839 1.25037 1.32612 1.33265 1.24383M6.57581 7.41669L1.32049 12.672L1.31549 12.677C1.2779 12.7146 1.22583 12.7666 1.18411 12.8222C1.15509 12.8609 1.11724 12.9189 1.09697 12.992M6.57581 7.41669L1.32049 2.16135C1.31886 2.15971 1.31719 2.15805 1.3155 2.15636C1.2779 2.11879 1.22583 2.06676 1.18411 2.01113C1.14475 1.95866 1.08914 1.8707 1.08317 1.75756M1.33265 1.24383C1.33265 1.16155 1.41493 1.07927 1.49721 0.99699L1.49727 0.996929C1.53842 0.955777 1.57957 0.935198 1.62072 0.91462C1.66187 0.894041 1.70302 0.873462 1.74417 0.83231C1.82648 0.750005 1.90877 0.75 1.99108 0.75C2.07338 0.75 2.15568 0.750005 2.23798 0.83231C2.27914 0.873462 2.3203 0.894041 2.36146 0.91462C2.40262 0.935198 2.44379 0.955777 2.48494 0.996929L7.74026 6.25225L7.91703 6.07547M1.33265 1.24383H1.08265C1.08265 1.20411 1.08892 1.16726 1.09881 1.13371M1.33265 1.24383L1.15587 1.06706C1.13389 1.08904 1.11502 1.11135 1.09881 1.13371M7.91703 6.07547L8.09381 6.25225L13.3491 0.996929C13.4314 0.914625 13.5138 0.83231 13.5961 0.83231H13.843M7.91703 6.07547L2.66171 0.820153C2.59159 0.750031 2.51977 0.714211 2.47775 0.693254C2.47621 0.692486 2.47471 0.691737 2.47325 0.691007C2.43218 0.670472 2.42437 0.665144 2.41476 0.655533C2.25888 0.499651 2.0863 0.499878 1.99794 0.499994C1.99559 0.499997 1.99331 0.5 1.99108 0.5C1.98885 0.5 1.98656 0.499997 1.98422 0.499994C1.89586 0.499878 1.72328 0.499651 1.5674 0.655533C1.55777 0.665159 1.54996 0.670489 1.5089 0.691021C1.50744 0.69175 1.50595 0.692498 1.50441 0.693266C1.46239 0.714226 1.3906 0.750043 1.32049 0.820153C1.31886 0.821787 1.31719 0.823452 1.3155 0.825146C1.2779 0.862713 1.22583 0.914741 1.18411 0.970368C1.15595 1.00791 1.11947 1.06361 1.09881 1.13371M7.91703 6.07547L13.1723 0.820152L13.1772 0.81525C13.2148 0.777624 13.2669 0.725508 13.3226 0.683743C13.3781 0.642113 13.4734 0.58231 13.5961 0.58231H13.843L13.843 0.83231M13.843 0.83231C13.843 0.58231 13.8431 0.58231 13.8431 0.58231L13.8432 0.58231L13.8435 0.58231L13.8441 0.582312L13.8455 0.58232L13.849 0.582364L13.8588 0.58262C13.8666 0.582889 13.8769 0.583392 13.8892 0.584334C13.9133 0.586191 13.9468 0.589886 13.9846 0.597457C14.0345 0.607438 14.116 0.628613 14.1936 0.678933M13.843 0.83231L14.653 13.6997M14.1936 0.678933C14.1618 0.670115 14.1271 0.66462 14.0899 0.66462V0.91462M14.1936 0.678933C14.2188 0.695286 14.2435 0.714717 14.2667 0.737843L14.0899 0.91462M14.1936 0.678933C14.2667 0.699203 14.3246 0.737033 14.3633 0.766048C14.419 0.807789 14.471 0.859877 14.5086 0.897486L14.5136 0.902438L14.5185 0.907386C14.5561 0.944968 14.6082 0.997019 14.65 1.05268C14.6893 1.10515 14.7449 1.19311 14.7509 1.30625M14.0899 0.91462C14.1722 0.91462 14.2545 0.996909 14.3368 1.07921C14.4191 1.16152 14.5014 1.24384 14.5014 1.32614C14.5014 1.3673 14.522 1.40845 14.5426 1.4496C14.5631 1.49075 14.5837 1.5319 14.5837 1.57305V1.57311C14.5837 1.65539 14.5837 1.73769 14.5014 1.81998M14.7509 1.30625C14.7498 1.30381 14.749 1.30185 14.7484 1.30011C14.748 1.29927 14.7479 1.29886 14.7479 1.29887C14.748 1.29889 14.7514 1.30916 14.7514 1.32614C14.7514 1.31943 14.7512 1.3128 14.7509 1.30625ZM14.7509 1.30625C14.7536 1.31233 14.758 1.32143 14.7662 1.33781L14.7677 1.34084C14.777 1.35948 14.7925 1.39038 14.8049 1.42356C14.8185 1.45966 14.8337 1.51153 14.8337 1.57305C14.8337 1.5753 14.8337 1.57761 14.8337 1.57998C14.8338 1.65583 14.834 1.79388 14.7353 1.9301M14.7353 1.9301C14.7451 1.89655 14.7514 1.8597 14.7514 1.81998H14.5014M14.7353 1.9301C14.719 1.95246 14.7002 1.97477 14.6782 1.99675L14.5014 1.81998M14.7353 1.9301C14.7146 2.0002 14.6781 2.0559 14.65 2.09344C14.6082 2.14906 14.5562 2.20109 14.5186 2.23865L14.5136 2.24366L14.5109 2.24634L14.5109 2.24632L9.17862 7.41939M14.5014 1.81998C14.5014 1.90226 14.4191 1.98453 14.3369 2.06682L14.3368 2.06688L9.00182 7.24259L9.17862 7.41939M9.17862 7.41939L14.4313 12.672C14.5014 12.7421 14.5372 12.8139 14.5582 12.856L14.5604 12.8604C14.5809 12.9015 14.5863 12.9093 14.5959 12.9189L14.6691 12.9922V13.077M9.17862 7.41939L8.99916 7.59349L14.2545 12.8488C14.2957 12.89 14.3162 12.9311 14.3368 12.9723C14.3574 13.0134 14.378 13.0546 14.4191 13.0957C14.4191 13.1369 14.4397 13.178 14.4603 13.2192C14.4808 13.2603 14.5014 13.3015 14.5014 13.3426V13.3427C14.5014 13.425 14.5014 13.5073 14.4191 13.5895L14.6691 13.077M14.6691 13.077C14.6719 13.0831 14.6762 13.092 14.6839 13.1074L14.6854 13.1104C14.6947 13.1291 14.7102 13.16 14.7226 13.1932C14.7362 13.2293 14.7514 13.2811 14.7514 13.3426C14.7514 13.3449 14.7514 13.3472 14.7514 13.3496C14.7515 13.4254 14.7517 13.5635 14.653 13.6997M14.6691 13.077L14.653 13.6997M14.653 13.6997C14.6323 13.7698 14.5958 13.8255 14.5677 13.863C14.526 13.9186 14.4739 13.9707 14.4363 14.0082L14.4313 14.0132L14.4263 14.0182C14.3887 14.0558 14.3367 14.1079 14.2811 14.1496C14.2286 14.189 14.1406 14.2446 14.0275 14.2505C14.0214 14.2532 14.0123 14.2576 13.9959 14.2658L13.9929 14.2674C13.9742 14.2767 13.9433 14.2922 13.9102 14.3046C13.8741 14.3181 13.8222 14.3334 13.7607 14.3334C13.7584 14.3334 13.7561 14.3334 13.7538 14.3334C13.6779 14.3335 13.5398 14.3337 13.4036 14.2349C13.3335 14.2143 13.2778 14.1778 13.2403 14.1496C13.1847 14.1079 13.1326 14.0558 13.0951 14.0182L13.0901 14.0132L7.83475 8.75791L2.57938 14.0132L2.57438 14.0182C2.53681 14.0558 2.48479 14.1079 2.42916 14.1496C2.3767 14.189 2.28875 14.2446 2.17561 14.2505C2.16953 14.2532 2.16043 14.2576 2.14406 14.2658L2.14104 14.2673C2.1224 14.2767 2.0915 14.2922 2.05831 14.3046C2.0222 14.3181 1.97033 14.3334 1.90879 14.3334C1.90657 14.3334 1.90428 14.3334 1.90193 14.3334C1.82603 14.3335 1.68799 14.3337 1.55177 14.2349C1.48168 14.2143 1.42597 14.1778 1.38843 14.1496C1.33274 14.1079 1.28066 14.0558 1.24306 14.0181L1.23816 14.0132L1.23324 14.0083C1.19562 13.9707 1.14352 13.9187 1.10177 13.863C1.06013 13.8074 1.00037 13.7122 1.00037 13.5895V13.3426H1.06071C1.00037 13.3426 1.00037 13.3426 1.00037 13.3426L1.00037 13.3424L1.00037 13.3422L1.00037 13.3416L1.00038 13.3402L1.00042 13.3367L1.00067 13.3268C1.00094 13.319 1.00144 13.3087 1.00238 13.2965C1.00424 13.2724 1.00793 13.2389 1.01549 13.201C1.02547 13.1511 1.04664 13.0696 1.09697 12.992M1.08317 1.75756C1.08425 1.75999 1.08505 1.76195 1.0857 1.76369C1.08602 1.76453 1.08614 1.76494 1.08613 1.76493C1.08609 1.76491 1.08265 1.75464 1.08265 1.73767C1.08265 1.74438 1.08283 1.75101 1.08317 1.75756ZM1.08317 1.75756C1.08049 1.75147 1.07608 1.74237 1.06789 1.72598C1.0674 1.72501 1.0669 1.72399 1.06637 1.72294C1.05703 1.7043 1.04157 1.6734 1.02913 1.64023C1.0156 1.60412 1.00037 1.55226 1.00037 1.49074C1.00037 1.48849 1.00036 1.48618 1.00036 1.48381C1.00026 1.40795 1.00007 1.26992 1.09881 1.13371M1.66189 14.0011C1.74419 14.0834 1.82649 14.0834 1.90879 14.0834C1.94995 14.0834 1.9911 14.0628 2.03225 14.0422C2.0734 14.0217 2.11455 14.0011 2.1557 14.0011C2.23798 14.0011 2.32026 13.9188 2.40254 13.8365L2.4026 13.8365L7.65797 8.58114L1.66189 14.0011ZM1.66189 14.0011C1.57959 14.0011 1.49724 13.9188 1.41494 13.8365M1.66189 14.0011L1.41494 13.8365M1.41494 13.8365C1.33263 13.7541 1.25037 13.6719 1.25037 13.5895M1.41494 13.8365L1.25037 13.5895" fill="#262332" stroke="#262332" stroke-width="0.5"/>
</svg>
