<svg width="12" height="6" viewBox="0 0 12 6" fill="none" xmlns="http://www.w3.org/2000/svg">
<path d="M5.99709 5.99706C5.83028 5.99739 5.66863 5.93929 5.54018 5.83286L1.25668 2.26328C1.11089 2.1421 1.01921 1.96796 1.0018 1.77919C0.984395 1.59041 1.04269 1.40245 1.16387 1.25665C1.28505 1.11086 1.45919 1.01917 1.64796 1.00177C1.83674 0.984365 2.0247 1.04266 2.1705 1.16384L5.99709 4.36219L9.82368 1.27807C9.89671 1.21877 9.98073 1.17448 10.0709 1.14776C10.1611 1.12104 10.2557 1.1124 10.3493 1.12235C10.4428 1.13231 10.5335 1.16065 10.616 1.20575C10.6986 1.25085 10.7714 1.31182 10.8303 1.38516C10.8957 1.45856 10.9452 1.54468 10.9758 1.63811C11.0063 1.73155 11.0172 1.83028 11.0078 1.92813C10.9985 2.02599 10.969 2.12085 10.9212 2.20677C10.8735 2.29269 10.8085 2.36783 10.7304 2.42748L6.44686 5.87569C6.31472 5.9653 6.15637 6.00803 5.99709 5.99706Z" fill="#50AE7C"/>
</svg>
