<?xml version="1.0" encoding="utf-8"?>
<!-- Generator: Adobe Illustrator 21.1.0, SVG Export Plug-In . SVG Version: 6.00 Build 0)  -->
<svg version="1.1" id="Layer_1" xmlns="http://www.w3.org/2000/svg" xmlns:xlink="http://www.w3.org/1999/xlink" x="0px" y="0px"
	 viewBox="0 0 171.6 86.7" style="enable-background:new 0 0 171.6 86.7;" xml:space="preserve">
<style type="text/css">
	.st0{fill:#049588;}
</style>
<g>
	<path class="st0" d="M75.6,80.3c-0.1,0-0.2-0.1-0.3-0.2h0c0,0-0.1-0.1-0.2-0.2c0,0-0.1-0.1-0.1-0.2c0-0.1-0.1-0.1-0.1-0.1
		c0,0-0.1-0.1-0.1-0.2c0-0.1-0.1-0.1-0.1-0.2l-8.6-20.6c-0.2-0.5-0.2-1,0-1.5c0.2-0.5,0.6-0.9,1.1-1c0.5-0.2,1-0.2,1.4,0
		c0.5,0.2,0.8,0.5,1.1,1l6.9,16.3l6.9-16.3c0.2-0.5,0.6-0.8,1.1-1c0.5-0.2,1-0.2,1.5,0c0.5,0.2,0.8,0.5,1,1c0.2,0.5,0.2,1,0,1.5
		l-8.7,20.6l-0.1,0.3c0,0,0,0,0,0.1l-0.5,0.5c0,0-0.1,0.1-0.2,0.1c-0.1,0-0.3,0.1-0.5,0.2h-0.1c-0.1,0-0.2,0-0.4,0
		c-0.2,0-0.3,0-0.3,0h-0.1C75.8,80.3,75.7,80.3,75.6,80.3L75.6,80.3L75.6,80.3z"/>
	<path class="st0" d="M93.5,57.7v0.7c0,0.5-0.2,1-0.5,1.4c-0.4,0.4-0.8,0.6-1.3,0.6c-0.5,0-1-0.2-1.4-0.6c-0.4-0.4-0.6-0.8-0.6-1.4
		v-0.7c0-0.5,0.2-1,0.6-1.3c0.4-0.4,0.8-0.6,1.4-0.6c0.5,0,1,0.2,1.3,0.5C93.3,56.7,93.5,57.1,93.5,57.7z M90.2,63.4
		c0.4-0.4,0.8-0.5,1.4-0.5c0.5,0,1,0.2,1.4,0.5c0.4,0.4,0.5,0.8,0.5,1.4v13.7c0,0.5-0.2,1-0.5,1.4c-0.4,0.4-0.8,0.5-1.3,0.5
		c-0.5,0-1-0.2-1.4-0.6c-0.4-0.4-0.6-0.8-0.6-1.3V64.8C89.7,64.2,89.9,63.8,90.2,63.4z"/>
	<path class="st0" d="M98.8,57.7c0-0.5,0.2-1,0.6-1.4c0.4-0.4,0.8-0.6,1.4-0.6c0.5,0,1,0.2,1.4,0.6c0.4,0.4,0.6,0.8,0.6,1.4v20.8
		c0,0.5-0.2,1-0.6,1.4c-0.4,0.4-0.9,0.6-1.4,0.6c-0.5,0-1-0.2-1.4-0.6c-0.4-0.4-0.6-0.8-0.6-1.4V57.7z"/>
	<path class="st0" d="M107.5,57.7c0-0.5,0.2-1,0.6-1.4c0.4-0.4,0.8-0.6,1.4-0.6c0.5,0,1,0.2,1.4,0.6c0.4,0.4,0.6,0.8,0.6,1.4v20.8
		c0,0.5-0.2,1-0.6,1.4c-0.4,0.4-0.9,0.6-1.4,0.6c-0.5,0-1-0.2-1.4-0.6c-0.4-0.4-0.6-0.8-0.6-1.4V57.7z"/>
	<path class="st0" d="M116.6,77.9c-1.6-1.7-2.4-3.8-2.4-6.2c0-2.4,0.8-4.5,2.4-6.2c1.6-1.7,3.6-2.6,6-2.6c1.7,0,3.2,0.5,4.7,1.5
		c0.1-0.4,0.3-0.8,0.7-1.1c0.3-0.3,0.7-0.4,1.2-0.4c0.5,0,0.9,0.2,1.3,0.6c0.4,0.4,0.5,0.8,0.5,1.3v13.8c0,0.5-0.2,1-0.5,1.3
		c-0.4,0.4-0.8,0.5-1.3,0.5c-0.5,0-0.9-0.1-1.2-0.4c-0.3-0.3-0.6-0.6-0.7-1.1c-1.4,1-3,1.5-4.7,1.5
		C120.2,80.4,118.2,79.6,116.6,77.9z M118,71.6c0,1.4,0.4,2.6,1.3,3.6c0.9,1,2,1.4,3.3,1.4c1.4,0,2.5-0.5,3.3-1.4
		c0.9-1,1.3-2.1,1.3-3.6c0-1.4-0.4-2.6-1.3-3.6c-0.9-1-2-1.5-3.3-1.5c-1.3,0-2.4,0.5-3.3,1.5C118.4,69,118,70.2,118,71.6z"/>
	<path class="st0" d="M136.6,77.9c-1.6-1.7-2.5-3.8-2.5-6.2c0-2.4,0.8-4.5,2.5-6.3c1.6-1.7,3.6-2.6,6-2.6c1.8,0,3.4,0.5,4.7,1.5
		c0.1-0.4,0.3-0.8,0.7-1.1c0.4-0.3,0.8-0.4,1.3-0.4s0.9,0.2,1.3,0.5c0.4,0.4,0.5,0.8,0.5,1.3v13.6c0,2.3-0.8,4.3-2.5,6
		c-1.7,1.7-3.6,2.5-6,2.5c-1.3,0-2.6-0.3-3.7-0.9c-0.5-0.2-0.8-0.6-1-1.1c-0.2-0.5-0.1-1,0.1-1.5c0.2-0.5,0.6-0.8,1.1-1
		c0.5-0.2,1-0.1,1.5,0.1c0.6,0.3,1.4,0.5,2.3,0.5s1.8-0.4,2.7-1.1c0.9-0.7,1.4-1.6,1.6-2.7c-1.4,0.9-2.9,1.4-4.6,1.4
		C140.2,80.6,138.2,79.7,136.6,77.9z M137.9,71.7c0,1.4,0.4,2.6,1.3,3.6c0.9,1,2,1.5,3.3,1.5c1.3,0,2.4-0.5,3.3-1.4
		c0.9-1,1.3-2.2,1.3-3.6s-0.5-2.6-1.4-3.6c-0.9-1-2-1.5-3.3-1.5c-1.3,0-2.4,0.5-3.3,1.5C138.4,69.1,137.9,70.3,137.9,71.7z"/>
	<path class="st0" d="M171.3,71.2c0,0.5-0.2,0.9-0.5,1.3c-0.3,0.3-0.8,0.5-1.4,0.5h-11.2c0.2,1,0.6,1.8,1.2,2.3
		c0.8,0.9,1.8,1.4,3.3,1.6c1.4,0.2,2.7-0.1,3.8-0.9c0.4-0.4,0.8-0.6,1.4-0.6c0.6,0,1,0.2,1.2,0.5c0.7,0.7,0.7,1.5,0,2.3
		c-1.7,1.5-3.8,2.3-6.2,2.3c-2.5,0-4.5-0.9-6.2-2.6c-1.7-1.7-2.5-3.8-2.5-6.2c0-2.4,0.9-4.5,2.5-6.2c1.7-1.7,3.7-2.6,6-2.6
		s4.3,0.8,5.9,2.3c1.6,1.5,2.5,3.5,2.6,5.9V71.2z M162.8,66.2c-1.4,0.1-2.5,0.5-3.3,1.3c-0.8,0.8-1.3,1.6-1.5,2.5h10
		c-0.2-0.8-0.8-1.6-1.7-2.4C165.4,66.7,164.2,66.3,162.8,66.2z"/>
	<g>
		<path class="st0" d="M59.9,56.2c-3.6-0.5-6.7-2.9-8.4-6c-2-3.8-1.5-8-1.5-12.1c0-3.2,0.2-6.4,0.2-9.7c0-3.7,0-7.4,0-11.2
			c0-3.1,0-6.4-1.3-9.3c-1.6-3.6-4.5-6.2-8.2-7.3C35.4-1,29.1,0.5,25,4.4s-6,10.1-4.7,15.6c-3.5-1-7.4-1-10.8,0.3S3,24.1,1.5,27.5
			C0,30.7,0,34.3,0,37.8c0,3.6,0,7.3,0,10.9c0,2,0.1,4.2,1.3,5.8C3.1,56.7,7.6,56.4,9,54c0.8-1.3,1-2.9,1-4.5c0-4.6,0-9.4-0.1-14
			c0-1.7-0.1-3.4,0.8-4.8c1.2-1.8,3.6-2.4,5.7-2c2.6,0.4,3.7,2,3.7,4.5c0,5.1-0.1,10.2-0.1,15.4c0,2.2,0.1,4.6,1.5,6.2
			c1.7,1.9,6.2,1.7,7.7-0.4c1.1-1.5,1.1-3.4,1.1-5.2c0-10.6,0-21.1-0.1-31.7c0-1.9,0-3.9,1-5.6c1.1-1.9,3.5-2.9,5.7-2.6
			c2.3,0.3,3.3,2.5,3.6,4.5c0.3,2.1,0.1,4.4,0.1,6.5c0,2.4,0,4.7-0.1,7.1c0,4.5,0.1,9,0.1,13.6c-0.1,9.8,2.9,19.7,12.8,23.5
			c1,0.4,2.1,0.7,3.2,1c1.9,0.4,3.9,0.6,5.6-0.4c1.5-0.9,2.4-2.8,2.1-4.6C63.9,58.5,62,56.3,59.9,56.2"/>
		<path class="st0" d="M80.4,15.1c-2.9,0-5.2,2.3-5.2,5.2v19.4c-0.2,0.1-0.3,0.3-0.5,0.4c-1.2,0.8-2.5,1.1-3.7,1
			c-1.2-0.1-2.4-0.5-3.2-1.2c-0.8-0.6-1.2-1.4-1.5-2.1c-0.2-0.3-0.3-0.8-0.4-1.2c0-0.1,0-0.1-0.1-0.2l0-0.1l0-0.3l0-0.7l0-0.2v-0.2
			v-4.8v-10c0-2.8-2.3-5.1-5.1-5.1c-2.8,0-5.1,2.3-5.1,5.1v10v4.8l0,0.9l0,0.7l0,0.3l0.1,0.6l0.1,1.1c0.3,1.4,0.6,2.7,1.4,4
			c0.7,1.3,1.7,2.5,2.9,3.4c1.2,1,2.5,1.8,3.8,2.3c1.4,0.5,2.8,0.8,4.2,0.9c1.4,0.1,2.8-0.1,4.2-0.4c1.2-0.3,2.3-0.8,3.4-1.4
			c0.8,1.9,2.6,3.3,4.8,3.3c2.9,0,5.2-2.3,5.2-5.2V20.4C85.6,17.5,83.2,15.1,80.4,15.1 M65.6,35.5L65.6,35.5l0-0.1v0
			C65.6,35.7,65.6,35.4,65.6,35.5"/>
		<path class="st0" d="M129.1,15.2c-3.9,0-9.6,2.5-10.6,6.4c-2.7-5.9-9-6.4-10.2-6.4c-4.7,0-7.8,3-8.1,4.6c-0.1-2.3-3.3-4-4.8-4
			c-2.8,0-5,2.1-5,4.8V46c0,2.2,1.6,4.1,4,4.7l0.4,0.1c0.2,0,0.4,0.1,0.6,0.1c1.9,0,5-0.8,5-4.8V30.3c0-2.7,2.3-4.9,5.1-4.9
			c2.8,0,5.2,2.1,5.2,4.7V46c0,2.6,2.3,4.8,5,4.8c2.7,0,5-2.1,5-4.8V30.3l0-0.1c0.1-2.7,2.4-4.8,5.3-4.8c2.8,0,5.1,2.2,5.1,4.9V46
			c0,2.6,2.3,4.8,5,4.8c2.7,0,5-2.1,5-4.8V30.3C141.1,22.3,137.4,15.2,129.1,15.2"/>
		<path class="st0" d="M147.2,40.6c1.2-1.7,3.4-1.9,4.8-0.6c1.7,1.6,4.6,3.3,7.1,3.1c2.2-0.2,3-2,3.2-3.3c0.5-2.4-1.5-3.3-3.9-3.8
			h-0.1c-2-0.4-3.9-1-5.6-1.8c-1.7-0.9-3.3-2.2-4.5-4.1c-0.7-1.3-1.1-2.8-1.1-4.5c0-3.3,1.7-6,3.8-7.8c2.3-1.7,5-2.6,7.9-2.6
			c4.5,0,7.6,2.3,9.7,3.9c1.6,1.1,2,3.5,1,5.3c-1,1.7-3.2,2.2-4.8,1c-2.1-1.5-3.9-3-5.9-2.6c-1.9,0.3-2.4,2.1-2.1,3.3
			c0.5,2.3,2.9,2.6,2.9,2.6c2.1,0.4,4.1,1.1,6,2.1c1.7,0.9,3.5,2.2,4.6,4.2c0.8,1.4,1.2,3.1,1.2,4.7c0,3.5-1.7,6.4-4.1,8.2
			c-2.3,1.8-5.2,2.8-8.4,2.8c-5-0.1-8.9-2.6-11.5-4.9C146.2,44.6,146,42.1,147.2,40.6"/>
	</g>
</g>
</svg>
