<svg width="22" height="22" viewBox="0 0 22 22" fill="none" xmlns="http://www.w3.org/2000/svg">
<path d="M20.3001 0.285706H12.2001C11.8143 0.285706 11.4715 0.414277 11.2143 0.714277L0.714338 11.2143C0.457195 11.4714 0.285767 11.8571 0.285767 12.2C0.285767 12.5857 0.414338 12.9286 0.714338 13.1857L8.77148 21.2857C9.02862 21.5429 9.41434 21.7143 9.80005 21.7143C10.1858 21.7143 10.5286 21.5429 10.7858 21.2857L21.2858 10.7857C21.5429 10.5286 21.7143 10.1428 21.7143 9.79999V1.69999C21.7143 0.928563 21.0715 0.285706 20.3001 0.285706ZM9.92862 18.3286C9.84291 18.4143 9.71434 18.4571 9.62862 18.4571C9.54291 18.4571 9.41434 18.4143 9.32862 18.3286L3.67148 12.6714C3.50005 12.5 3.50005 12.2428 3.67148 12.0714C3.84291 11.9 4.10005 11.9 4.27148 12.0714L9.92862 17.7286C10.1001 17.9 10.1001 18.1571 9.92862 18.3286ZM11.5143 16.7857C11.4286 16.8714 11.3001 16.9143 11.2143 16.9143C11.1286 16.9143 11.0001 16.8714 10.9143 16.7857L5.21434 11.0857C5.04291 10.9143 5.04291 10.6571 5.21434 10.4857C5.38577 10.3143 5.64291 10.3143 5.81434 10.4857L11.4715 16.1428C11.6858 16.3571 11.6858 16.6143 11.5143 16.7857ZM13.0572 15.2429C12.9715 15.3286 12.8429 15.3714 12.7572 15.3714C12.6715 15.3714 12.5429 15.3286 12.4572 15.2429L6.7572 9.54285C6.58577 9.37142 6.58577 9.11428 6.7572 8.94285C6.92862 8.77142 7.18577 8.77142 7.3572 8.94285L13.0143 14.6C13.2286 14.7714 13.2286 15.0714 13.0572 15.2429ZM14.6001 13.6571C14.5143 13.7428 14.3858 13.7857 14.3001 13.7857C14.2143 13.7857 14.0858 13.7428 14.0001 13.6571L8.34291 7.99999C8.17148 7.82856 8.17148 7.57142 8.34291 7.39999C8.51434 7.22856 8.77148 7.22856 8.94291 7.39999L14.6001 13.0571C14.7715 13.2286 14.7715 13.4857 14.6001 13.6571ZM16.1858 12.1143C16.1001 12.2 15.9715 12.2429 15.8858 12.2429C15.8001 12.2429 15.6715 12.2 15.5858 12.1143L9.88577 6.45713C9.71434 6.28571 9.71434 6.02856 9.88577 5.85713C10.0572 5.68571 10.3143 5.68571 10.4858 5.85713L16.1429 11.5143C16.3143 11.6857 16.3143 11.9428 16.1858 12.1143ZM17.9858 6.37142C17.6429 6.71428 17.2143 6.84285 16.7858 6.84285C16.3572 6.84285 15.9286 6.67142 15.5858 6.37142C15.2858 6.07142 15.1143 5.64285 15.1143 5.17142C15.1143 4.74285 15.2858 4.31428 15.5858 3.97142C16.2286 3.32856 17.3001 3.32856 17.9429 3.97142C18.2429 4.27142 18.4143 4.69999 18.4143 5.17142C18.4143 5.64285 18.2858 6.07142 17.9858 6.37142Z" fill="#50AE7C"/>
</svg>
