<svg width="16" height="16" viewBox="0 0 16 16" fill="none" xmlns="http://www.w3.org/2000/svg">
<path fill-rule="evenodd" clip-rule="evenodd" d="M4.26686 1.455C4.91012 1.40364 5.52077 1.15063 6.01186 0.731997C6.56652 0.259588 7.27129 0.000137329 7.99986 0.000137329C8.72843 0.000137329 9.4332 0.259588 9.98786 0.731997C10.4789 1.15063 11.0896 1.40364 11.7329 1.455C12.4593 1.51305 13.1413 1.82796 13.6566 2.34326C14.1719 2.85856 14.4868 3.54057 14.5449 4.267C14.5959 4.91 14.8489 5.521 15.2679 6.012C15.7403 6.56666 15.9997 7.27142 15.9997 8C15.9997 8.72857 15.7403 9.43333 15.2679 9.988C14.8492 10.4791 14.5962 11.0897 14.5449 11.733C14.4868 12.4594 14.1719 13.1414 13.6566 13.6567C13.1413 14.172 12.4593 14.4869 11.7329 14.545C11.0896 14.5964 10.4789 14.8494 9.98786 15.268C9.4332 15.7404 8.72843 15.9999 7.99986 15.9999C7.27129 15.9999 6.56652 15.7404 6.01186 15.268C5.52077 14.8494 4.91012 14.5964 4.26686 14.545C3.54043 14.4869 2.85843 14.172 2.34313 13.6567C1.82782 13.1414 1.51292 12.4594 1.45486 11.733C1.4035 11.0897 1.15049 10.4791 0.73186 9.988C0.259451 9.43333 0 8.72857 0 8C0 7.27142 0.259451 6.56666 0.73186 6.012C1.15049 5.52091 1.4035 4.91026 1.45486 4.267C1.51292 3.54057 1.82782 2.85856 2.34313 2.34326C2.85843 1.82796 3.54043 1.51305 4.26686 1.455ZM11.7069 6.707C11.889 6.51839 11.9898 6.26579 11.9875 6.0036C11.9853 5.7414 11.8801 5.49059 11.6947 5.30518C11.5093 5.11977 11.2585 5.0146 10.9963 5.01232C10.7341 5.01004 10.4815 5.11084 10.2929 5.293L6.99986 8.586L5.70686 7.293C5.51826 7.11084 5.26565 7.01005 5.00346 7.01232C4.74126 7.0146 4.49045 7.11977 4.30504 7.30518C4.11963 7.49059 4.01446 7.7414 4.01219 8.0036C4.00991 8.26579 4.1107 8.51839 4.29286 8.707L6.29286 10.707C6.48039 10.8945 6.7347 10.9998 6.99986 10.9998C7.26502 10.9998 7.51933 10.8945 7.70686 10.707L11.7069 6.707Z" fill="white"/>
</svg>
