<svg width="25" height="25" viewBox="0 0 25 25" fill="none" xmlns="http://www.w3.org/2000/svg">
<path d="M3.66075 21.339C8.54275 26.221 16.4568 26.221 21.3388 21.339C26.2208 16.457 26.2208 8.54301 21.3388 3.66101C16.4568 -1.22099 8.54275 -1.22099 3.66075 3.66101C-1.22025 8.54301 -1.22025 16.457 3.66075 21.339ZM9.20575 4.72601L11.0658 6.58601C11.4377 6.95801 11.5168 7.53301 11.2587 7.99201L10.5598 9.23301C10.4758 9.38181 10.443 9.55402 10.4663 9.72326C10.4896 9.8925 10.5677 10.0494 10.6888 10.17L14.8298 14.311C14.9504 14.4319 15.1074 14.5098 15.2767 14.533C15.4459 14.5561 15.6181 14.5231 15.7668 14.439L17.0077 13.74C17.231 13.6142 17.4893 13.5649 17.7432 13.5998C17.9972 13.6346 18.2327 13.7517 18.4137 13.933L20.2747 15.794C20.4946 16.0143 20.618 16.3128 20.618 16.624C20.618 16.9352 20.4946 17.2337 20.2747 17.454L19.3937 18.335C18.905 18.8226 18.269 19.1352 17.5845 19.2243C16.8999 19.3135 16.205 19.1741 15.6077 18.828L15.5238 18.78C11.8728 16.6939 8.81919 13.7046 6.65575 10.099L6.23275 9.39301C5.87321 8.7948 5.72406 8.09352 5.80905 7.40076C5.89404 6.70801 6.20827 6.06358 6.70175 5.57001L7.54575 4.72601C7.65469 4.61692 7.78407 4.53037 7.92649 4.47133C8.06891 4.41228 8.22158 4.38188 8.37575 4.38188C8.52993 4.38188 8.68259 4.41228 8.82501 4.47133C8.96743 4.53037 9.09681 4.61692 9.20575 4.72601Z" fill="#50AE7C"/>
</svg>
